<mxfile host="app.diagrams.net" modified="2023-05-18T09:15:24.638Z" agent="Mozilla/5.0 (Macintosh; Intel Mac OS X 10_15_7) AppleWebKit/605.1.15 (KHTML, like Gecko) Version/16.4 Safari/605.1.15" version="21.3.2" etag="OutN1m3_mZtYRBnDx4qw" type="github">
  <diagram name="Page-1" id="d1vk-SAfMCjLZlCM01B4">
    <mxGraphModel>
      <root>
        <mxCell id="0" />
        <mxCell id="1" parent="0" />
      </root>
    </mxGraphModel>
  </diagram>
</mxfile>
